# xmcd
#
# Track frame offsets: 
#        150
#        18751
#        36748
#        75614
#        91683
#        115530
#        133837
#        153041
#        176789
#        197133
#
# Disc length: 2972 seconds
#
# Revision: 0
# Processed by: cddbd v1.5.2PL0 Copyright (c) Steve Scherf et al.
# Submitted via: ExactAudioCopy v0.99pb5
#
DISCID=750b9a0a
DTITLE=Steckel, Eric - Dismantle the Sun
DYEAR=2012
DGENRE=Blues
TTITLE0=Mississippi River 
TTITLE1=Day Drinkin'
TTITLE2=Empty Promises
TTITLE3=Love Me or Leave Me
TTITLE4=Last Night
TTITLE5=Outlaw
TTITLE6=Highway Bound
TTITLE7=Found Out the Hard Way
TTITLE8=Sugar Sweet
TTITLE9=From Your Blue Eyes to Mine
EXTD=
EXTT0=
EXTT1=
EXTT2=
EXTT3=
EXTT4=
EXTT5=
EXTT6=
EXTT7=
EXTT8=
EXTT9=
PLAYORDER=
